HIERARCHY
ROOT SpineBase
{
  OFFSET 0.000000 0.000000 0.000000
  CHANNELS 6 Xposition Yposition Zposition Zrotation Xrotation Yrotation
  JOINT SpineMid
  {
    OFFSET 0.000000 25.099566 0.000000
    CHANNELS 3 Zrotation Xrotation Yrotation
    JOINT SpineShoulder
    {
      OFFSET -0.003823 18.421651 -0.610565
      CHANNELS 3 Zrotation Xrotation Yrotation
      JOINT Neck
      {
        OFFSET -0.056052 6.024045 -0.493987
        CHANNELS 3 Zrotation Xrotation Yrotation
        JOINT Head
        {
          OFFSET 0.848408 10.514237 -3.605500
          CHANNELS 3 Zrotation Xrotation Yrotation
          End Site
          {
            OFFSET 0 0 0
          }
        }
      }
      JOINT ShoulderLeft
      {
        OFFSET -15.217004 -3.263017 -7.170523
        CHANNELS 3 Zrotation Xrotation Yrotation
        JOINT ElbowLeft
        {
          OFFSET -8.366879 -21.208373 -7.161909
          CHANNELS 3 Zrotation Xrotation Yrotation
          JOINT WristLeft
          {
            OFFSET 8.670493 -17.863554 -10.796034
            CHANNELS 3 Zrotation Xrotation Yrotation
            JOINT HandLeft
            {
              OFFSET 4.152568 -5.619107 -1.205837
              CHANNELS 3 Zrotation Xrotation Yrotation
              JOINT HandTipLeft
              {
                OFFSET 4.486989 -5.604848 -5.807068
                CHANNELS 3 Zrotation Xrotation Yrotation
                End Site
                {
                  OFFSET 0 0 0
                }
              }
              JOINT ThumbLeft
              {
                OFFSET 2.361972 0.552975 -5.713492
                CHANNELS 3 Zrotation Xrotation Yrotation
                End Site
                {
                  OFFSET 0 0 0
                }
              }
            }
          }
        }
      }
      JOINT ShoulderRight
      {
        OFFSET 18.207994 -0.109756 6.680704
        CHANNELS 3 Zrotation Xrotation Yrotation
        JOINT ElbowRight
        {
          OFFSET 11.529974 -21.226723 -1.182024
          CHANNELS 3 Zrotation Xrotation Yrotation
          JOINT WristRight
          {
            OFFSET -5.138191 -6.664568 -18.008306
            CHANNELS 3 Zrotation Xrotation Yrotation
            JOINT HandRight
            {
              OFFSET 0.112239 0.863754 -1.248646
              CHANNELS 3 Zrotation Xrotation Yrotation
              JOINT HandTipRight
              {
                OFFSET -0.578862 -1.643001 -1.543016
                CHANNELS 3 Zrotation Xrotation Yrotation
                End Site
                {
                  OFFSET 0 0 0
                }
              }
              JOINT ThumbRight
              {
                OFFSET -1.012012 2.091140 -2.180212
                CHANNELS 3 Zrotation Xrotation Yrotation
                End Site
                {
                  OFFSET 0 0 0
                }
              }
            }
          }
        }
      }
    }
  }
  JOINT HipLeft
  {
    OFFSET -6.893917 -0.222005 -4.876162
    CHANNELS 3 Zrotation Xrotation Yrotation
    JOINT KneeLeft
    {
      OFFSET 6.263944 -15.390829 -34.082894
      CHANNELS 3 Zrotation Xrotation Yrotation
      JOINT AnkleLeft
      {
        OFFSET -1.698577 -37.758607 0.753305
        CHANNELS 3 Zrotation Xrotation Yrotation
        JOINT FootLeft
        {
          OFFSET 3.385855 -8.302621 -8.651135
          CHANNELS 3 Zrotation Xrotation Yrotation
          End Site
          {
            OFFSET 0 0 0
          }
        }
      }
    }
  }
  JOINT HipRight
  {
    OFFSET 6.470844 -0.646511 -1.619133
    CHANNELS 3 Zrotation Xrotation Yrotation
    JOINT KneeRight
    {
      OFFSET 28.457975 -9.085504 -23.593973
      CHANNELS 3 Zrotation Xrotation Yrotation
      JOINT AnkleRight
      {
        OFFSET -2.274179 -33.841040 10.832936
        CHANNELS 3 Zrotation Xrotation Yrotation
        JOINT FootRight
        {
          OFFSET 3.102819 -8.386703 -8.620146
          CHANNELS 3 Zrotation Xrotation Yrotation
          End Site
          {
            OFFSET 0 0 0
          }
        }
      }
    }
  }
}
MOTION
Frames: 5
Frame Time: 0.033333
33.064247 64.560327 393.163248 7.414825 -6.896163 -13.181227 -0.347246 2.180979 13.732237 -0.262544 1.650496 0.224883 -0.147877 10.906865 0.564546 0.000000 0.000000 0.000000 -15.865561 5.576723 2.148649 112.865010 41.418304 -58.660249 0.517932 8.391115 34.826150 -16.790712 -37.383698 -42.311971 0.000000 0.000000 0.000000 0.000000 0.000000 0.000000 25.276209 17.478337 -0.293273 -71.752959 40.303597 34.245069 50.393448 -34.782236 39.172103 -30.568440 52.904346 -25.981581 0.000000 0.000000 0.000000 0.000000 0.000000 0.000000 -15.019039 5.031341 28.225267 7.609637 -1.633849 -13.490485 -3.961705 0.077500 2.954319 0.000000 0.000000 0.000000 -16.266620 0.410976 33.187905 11.041932 -1.283853 -17.947171 -4.708253 2.234629 2.166483 0.000000 0.000000 0.000000
33.152648 64.501309 392.606422 7.531101 -5.489065 -13.408041 -0.086774 0.726616 13.969176 -0.297739 1.643777 0.225241 -0.003557 11.083819 0.578403 0.000000 0.000000 0.000000 -15.978489 5.096094 2.381821 113.425423 41.467710 -59.372785 1.250625 7.309560 35.018195 -15.813560 -37.498702 -42.039512 0.000000 0.000000 0.000000 0.000000 0.000000 0.000000 25.329535 17.491126 -0.353290 -71.799287 40.490092 34.193222 50.568534 -34.419973 40.118433 -28.929052 53.777894 -27.984512 0.000000 0.000000 0.000000 0.000000 0.000000 0.000000 -14.922724 3.394408 28.459334 7.889565 -1.151572 -13.884184 -4.103576 -0.863622 2.902965 0.000000 0.000000 0.000000 -16.001400 -1.074220 32.546275 10.842266 -1.361129 -17.502975 -4.758282 1.999248 2.168744 0.000000 0.000000 0.000000
33.084051 64.534755 392.088296 7.421555 -4.417159 -13.762823 0.224058 -0.124713 14.304696 -0.245110 1.383800 0.241917 -0.025889 11.281737 0.560079 0.000000 0.000000 0.000000 -16.009161 4.881685 2.486934 113.882393 41.876178 -60.019391 2.279635 5.857600 35.342111 -14.872068 -37.716602 -41.820424 0.000000 0.000000 0.000000 0.000000 0.000000 0.000000 25.284535 17.416564 -0.431840 -71.839043 40.712526 34.213726 50.821232 -35.115167 40.737631 -31.577720 55.253095 -25.072980 0.000000 0.000000 0.000000 0.000000 0.000000 0.000000 -14.502712 1.891134 28.550136 8.020791 -0.663363 -13.965158 -4.219567 -1.430958 2.861370 0.000000 0.000000 0.000000 -15.581205 -2.256197 32.002489 10.764965 -1.217507 -16.948010 -4.846316 1.620287 2.162882 0.000000 0.000000 0.000000
33.114211 64.590556 391.275511 7.601995 -3.106986 -14.730522 0.355215 -0.874540 15.253595 -0.138587 1.025889 0.274104 -0.454378 11.833121 0.402240 0.000000 0.000000 0.000000 -16.296551 4.819558 2.420843 114.652456 41.433145 -60.355001 -0.254425 5.270155 34.713304 -12.996662 -38.536146 -41.184117 0.000000 0.000000 0.000000 0.000000 0.000000 0.000000 25.001929 17.147044 -0.364310 -71.925118 40.881349 34.319586 50.589506 -34.572035 40.558364 -30.791518 56.013312 -25.830770 0.000000 0.000000 0.000000 0.000000 0.000000 0.000000 -14.277262 -0.539907 29.343900 8.281308 -0.111336 -14.241021 -4.409476 -1.954001 2.777982 0.000000 0.000000 0.000000 -15.374968 -4.006299 31.872589 10.823474 -0.835329 -16.295950 -5.016815 0.784750 2.118993 0.000000 0.000000 0.000000
33.318460 64.643301 390.994199 8.085668 -2.953140 -14.709974 0.007698 -0.592177 15.225504 -0.043932 0.591204 0.316971 -0.988855 12.287188 0.261512 0.000000 0.000000 0.000000 -16.679596 5.001565 2.333250 113.985380 41.702132 -59.705007 0.989933 6.791976 35.040456 -15.155371 -41.198828 -42.213958 0.000000 0.000000 0.000000 0.000000 0.000000 0.000000 24.816264 17.026490 -0.382438 -71.990996 41.029453 34.196064 50.561412 -34.130781 41.032510 -27.856596 55.770215 -29.004121 0.000000 0.000000 0.000000 0.000000 0.000000 0.000000 -14.789447 -1.059175 29.573899 8.408099 0.011350 -14.559285 -4.412788 -2.229720 2.725253 0.000000 0.000000 0.000000 -15.856826 -4.389921 31.728362 11.036198 -0.507042 -16.250346 -5.121092 0.216864 2.061201 0.000000 0.000000 0.000000
